<svg xmlns="http://www.w3.org/2000/svg" width="131.546" height="28" viewBox="0 0 131.546 28">
    <defs>
        <style>
            .cls-1{fill:#fff}
        </style>
    </defs>
    <g id="Сгруппировать_339" transform="translate(-119.339 -162.212)">
        <path id="Контур_2" d="M124.77 195.322a5.285 5.285 0 0 1-3.459-1.537l-1.673 3.165a10.525 10.525 0 0 0 2.284 1.2 8.05 8.05 0 0 0 2.961.5 5.847 5.847 0 0 0 4.454-1.537 5.11 5.11 0 0 0 1.424-3.8 3.561 3.561 0 0 0-.972-2.69 5.756 5.756 0 0 0-2.736-1.492l-1.2-.362a2.476 2.476 0 0 1-1.311-.678 1.007 1.007 0 0 1-.2-.679 1.115 1.115 0 0 1 .385-.814 1.876 1.876 0 0 1 1.288-.452 3.978 3.978 0 0 1 2.577 1.017l1.56-3.052a10.6 10.6 0 0 0-4.657-1.221 5.316 5.316 0 0 0-3.866 1.424 4.93 4.93 0 0 0-1.379 3.64 3.8 3.8 0 0 0 .859 2.668 4.928 4.928 0 0 0 2.17 1.22l1.017.316a5.436 5.436 0 0 1 1.945.791 1.178 1.178 0 0 1 .429.9 1.347 1.347 0 0 1-.384.949 1.985 1.985 0 0 1-1.516.524z" class="cls-1" transform="translate(-.21 -14.555)"/>
        <path id="Контур_3" d="M180.8 184.035v15.079h8.613v-3.324h-4.7v-11.755z" class="cls-1" transform="translate(-43.266 -15.362)"/>
        <path id="Контур_4" d="M241.112 196.407a7.888 7.888 0 0 0 0-11.281 9.016 9.016 0 0 0-11.892 0 7.889 7.889 0 0 0 0 11.281 9.016 9.016 0 0 0 11.892 0zm-10.2-5.561a4.133 4.133 0 0 1 1.2-2.961 4.341 4.341 0 0 1 3.052-1.2 4.511 4.511 0 0 1 3.029 1.2 4.067 4.067 0 0 1 1.221 2.894 4.1 4.1 0 0 1-4.25 4.069 4.277 4.277 0 0 1-3.052-1.2 3.831 3.831 0 0 1-1.196-2.802z" class="cls-1" transform="translate(-75.679 -14.555)"/>
        <path id="Контур_5" d="M309.029 199.113v-11.755h3.211v-3.323h-10.332v3.323h3.21v11.755z" class="cls-1" transform="translate(-128.518 -15.362)"/>
        <path id="Контур_6" d="M364.323 199.113h1.56l3.64-8.681 1.107 8.681h3.911l-2.261-15.079h-3.91l-3.233 8.048-3.052-8.048h-3.866l-2.554 15.079h3.888l1.289-8.681z" class="cls-1" transform="translate(-166.359 -15.362)"/>
        <path id="Контур_7" d="M444.525 193.6l1.65-4.883 1.7 4.883 1.04 2.984.927 2.532h4.182l-5.674-15.079h-4.273l-5.788 15.079h4.137l1.017-2.532z" class="cls-1" transform="translate(-224.519 -15.362)"/>
        <path id="Контур_8" d="M523.705 199.113h3.911v-15.078h-3.911v9.224l-7.211-9.224h-3.911v15.079h3.911v-9.224z" class="cls-1" transform="translate(-276.82 -15.362)"/>
        <path id="Прямоугольник_7" d="M0 0H131.546V0.837H0z" class="cls-1" transform="translate(119.339 162.212)"/>
        <path id="Прямоугольник_8" d="M0 0H131.546V0.837H0z" class="cls-1" transform="translate(119.339 189.375)"/>
    </g>
</svg>
